<svg id="圖層_1" data-name="圖層 1" xmlns="http://www.w3.org/2000/svg" viewBox="0 0 89.81 61.63"><defs><style>.cls-1{fill:none;}.cls-1,.cls-2{stroke:#231815;stroke-miterlimit:10;stroke-width:2px;}.cls-2,.cls-3{fill:#231815;}</style></defs><circle class="cls-1" cx="8.84" cy="8.84" r="7.84"/><circle class="cls-1" cx="45.76" cy="8.84" r="7.84"/><rect class="cls-2" x="5.06" y="21.36" width="7.57" height="39.27"/><rect class="cls-2" x="41.98" y="21.36" width="7.57" height="39.27"/><rect class="cls-1" x="145.23" y="99.64" width="7.57" height="39.27" transform="translate(188.45 -123.87) rotate(90)"/><rect class="cls-1" x="145.23" y="115.49" width="7.57" height="39.27" transform="translate(218.19 176.12) rotate(180)"/><rect class="cls-1" x="96.55" y="114.66" width="7.57" height="26.95" transform="translate(-141.06 14.34) rotate(-45)"/><rect class="cls-1" x="110.26" y="114.66" width="7.57" height="26.95" transform="translate(24.24 205.25) rotate(-135)"/><rect class="cls-3" x="103.97" y="131.35" width="6.86" height="6.86" transform="translate(46.92 -130.6) rotate(45)"/><rect class="cls-3" x="145.58" y="116.2" width="6.86" height="6.86" transform="translate(188.8 -123.52) rotate(90)"/><path class="cls-3" d="M157.87,100.48a2.31,2.31,0,0,1,0,4l-4.59,2.65-4.59,2.65a2.31,2.31,0,0,1-3.46-2V97.17a2.31,2.31,0,0,1,3.46-2l4.59,2.65Z" transform="translate(-79.84 -94.13)"/></svg>